# xmcd
#
# Track frame offsets: 
#        150
#        26433
#        47697
#        66549
#        91355
#        108694
#        120019
#        138092
#        155660
#        179282
#        196617
#
# Disc length: 2828 seconds
#
# Revision: 0
# Processed by: cddbd v1.5.2PL0 Copyright (c) Steve Scherf et al.
# Submitted via: ExactAudioCopy v0.95a5
#
DISCID=8b0b0a0b
DTITLE=未知艺术家 - DTS-纯音乐系列五
DYEAR=1900
DGENRE=A Cappella
TTITLE0=美丽的金孔雀（葫芦丝）
TTITLE1=听妈妈讲那过去的事情（弦乐二重奏）
TTITLE2=思念（三重唱）
TTITLE3=渴望（民乐管弦乐重奏）
TTITLE4=绿岛小夜曲（萧与琵琶）
TTITLE5=财神到（唢呐）
TTITLE6=草原上升起不落的太阳（高胡与中胡）
TTITLE7=毛主席的话儿记心上（葫芦丝与古筝）
TTITLE8=在雨中（男女声对唱）
TTITLE9=月亮代表我的心
TTITLE10=失意周末（DISCO）
EXTD=
EXTT0=
EXTT1=
EXTT2=
EXTT3=
EXTT4=
EXTT5=
EXTT6=
EXTT7=
EXTT8=
EXTT9=
EXTT10=
PLAYORDER=
